<mxfile host="Electron" modified="2023-06-17T09:13:01.136Z" agent="Mozilla/5.0 (Macintosh; Intel Mac OS X 10_15_7) AppleWebKit/537.36 (KHTML, like Gecko) draw.io/21.2.8 Chrome/112.0.5615.165 Electron/24.2.0 Safari/537.36" etag="LVYvYgUxk4oDo0Q5uUdn" version="21.2.8" type="device">
  <diagram name="ページ1" id="HTUM9WQVRzLt1JtgzXWI">
    <mxGraphModel dx="872" dy="999" grid="1" gridSize="10" guides="1" tooltips="1" connect="1" arrows="1" fold="1" page="1" pageScale="1" pageWidth="827" pageHeight="1169" math="0" shadow="0">
      <root>
        <mxCell id="0" />
        <mxCell id="1" parent="0" />
        <mxCell id="z0yhP22A5qaA2MCpn2JW-1" value="" style="group" parent="1" vertex="1" connectable="0">
          <mxGeometry x="10" y="10" width="600" height="600" as="geometry" />
        </mxCell>
        <mxCell id="WHZABowf8DTFQ4wcId3o-12" value="" style="ellipse;whiteSpace=wrap;html=1;aspect=fixed;strokeColor=none;shadow=0;" parent="z0yhP22A5qaA2MCpn2JW-1" vertex="1">
          <mxGeometry width="600" height="600" as="geometry" />
        </mxCell>
        <mxCell id="WHZABowf8DTFQ4wcId3o-1" value="" style="ellipse;whiteSpace=wrap;html=1;aspect=fixed;fillColor=#0000FF;strokeColor=#0000FF;shadow=0;" parent="z0yhP22A5qaA2MCpn2JW-1" vertex="1">
          <mxGeometry x="45.77922077922078" y="45.77922077922078" width="508.44155844155847" height="508.44155844155847" as="geometry" />
        </mxCell>
        <mxCell id="WHZABowf8DTFQ4wcId3o-4" value="" style="rounded=0;whiteSpace=wrap;html=1;fillColor=#FFFFFF;strokeColor=#FFFFFF;" parent="z0yhP22A5qaA2MCpn2JW-1" vertex="1">
          <mxGeometry x="436.36363636363643" y="164.6103896103896" width="77.92207792207792" height="58.44155844155844" as="geometry" />
        </mxCell>
        <mxCell id="WHZABowf8DTFQ4wcId3o-6" value="" style="rounded=0;whiteSpace=wrap;html=1;fillColor=#FFFFFF;strokeColor=#FFFFFF;" parent="z0yhP22A5qaA2MCpn2JW-1" vertex="1">
          <mxGeometry x="163.63636363636365" y="97.40259740259741" width="272.72727272727275" height="77.92207792207792" as="geometry" />
        </mxCell>
        <mxCell id="WHZABowf8DTFQ4wcId3o-7" value="" style="rounded=0;whiteSpace=wrap;html=1;fillColor=#FFFFFF;strokeColor=#FFFFFF;" parent="z0yhP22A5qaA2MCpn2JW-1" vertex="1">
          <mxGeometry x="85.71428571428572" y="165.5844155844156" width="77.92207792207792" height="126.62337662337663" as="geometry" />
        </mxCell>
        <mxCell id="WHZABowf8DTFQ4wcId3o-8" value="" style="rounded=0;whiteSpace=wrap;html=1;fillColor=#FFFFFF;strokeColor=#FFFFFF;" parent="z0yhP22A5qaA2MCpn2JW-1" vertex="1">
          <mxGeometry x="163.63636363636365" y="409.0909090909091" width="272.72727272727275" height="77.92207792207792" as="geometry" />
        </mxCell>
        <mxCell id="WHZABowf8DTFQ4wcId3o-10" value="" style="rounded=0;whiteSpace=wrap;html=1;fillColor=#FFFFFF;strokeColor=#FFFFFF;" parent="z0yhP22A5qaA2MCpn2JW-1" vertex="1">
          <mxGeometry x="85.71428571428572" y="375" width="77.92207792207792" height="58.44155844155844" as="geometry" />
        </mxCell>
        <mxCell id="WHZABowf8DTFQ4wcId3o-11" value="" style="rounded=0;whiteSpace=wrap;html=1;fillColor=#FFFFFF;strokeColor=#FFFFFF;" parent="z0yhP22A5qaA2MCpn2JW-1" vertex="1">
          <mxGeometry x="163.63636363636365" y="261.0389610389611" width="272.72727272727275" height="77.92207792207792" as="geometry" />
        </mxCell>
        <mxCell id="2teciNXur87q0s7zuHtv-1" value="" style="rounded=0;whiteSpace=wrap;html=1;fillColor=#FFFFFF;strokeColor=#FFFFFF;glass=0;" parent="z0yhP22A5qaA2MCpn2JW-1" vertex="1">
          <mxGeometry x="436.36363636363643" y="311.68831168831167" width="77.92207792207792" height="121.75324675324676" as="geometry" />
        </mxCell>
      </root>
    </mxGraphModel>
  </diagram>
</mxfile>
